<?xml version="1.0" encoding="utf-8"?>
<!-- Generator: Adobe Illustrator 16.0.0, SVG Export Plug-In . SVG Version: 6.00 Build 0)  -->
<!DOCTYPE svg PUBLIC "-//W3C//DTD SVG 1.1//EN" "http://www.w3.org/Graphics/SVG/1.1/DTD/svg11.dtd">
<svg version="1.1" id="Layer_1" xmlns="http://www.w3.org/2000/svg" xmlns:xlink="http://www.w3.org/1999/xlink" x="0px" y="0px"
	 width="65.117px" height="65.117px" viewBox="0 0 65.117 65.117" enable-background="new 0 0 65.117 65.117" xml:space="preserve">
<g>
	<g opacity="0.65">
		
			<image overflow="visible" opacity="0.4" width="35" height="45" xlink:href="17BE13BE22C54ED4.png"  transform="matrix(1 0 0 1 8.1333 -3.8667)">
		</image>
		<g>
			<path fill="#213322" d="M33.27,2.856c-1.631-8.097-20.267,13.341-20.133,18.101c0.135,4.76,13.066,12.228,15.984,12.068
				c3.012-0.165,3.621-0.527,3.621-0.527s1.16-0.716,2.04-2.576C36.063,27.211,34.899,10.954,33.27,2.856z"/>
		</g>
	</g>
	<g opacity="0.65">
		
			<image overflow="visible" opacity="0.4" width="42" height="38" xlink:href="17BE13BE22C54ED5.png"  transform="matrix(1 0 0 1 20.1333 2.1333)">
		</image>
		<g>
			<path fill="#006837" d="M54.064,11.944c4.573-6.879-23.764-4.896-27.035-1.436c-3.271,3.46,0.594,17.885,2.769,19.834
				c2.247,2.014,2.934,2.188,2.934,2.188s1.327,0.314,3.264-0.379C38.818,31.142,49.49,18.822,54.064,11.944z"/>
		</g>
	</g>
	<g opacity="0.65">
		
			<image overflow="visible" opacity="0.4" width="45" height="35" xlink:href="17BE13BE22C54EDA.png"  transform="matrix(1 0 0 1 26.1333 7.1333)">
		</image>
		<g>
			<path fill="#7FA36F" d="M62.058,32.762c8.098-1.629-13.342-20.265-18.102-20.131c-4.76,0.135-12.228,13.067-12.068,15.984
				c0.165,3.012,0.527,3.621,0.527,3.621s0.716,1.161,2.577,2.039C37.703,35.555,53.96,34.391,62.058,32.762z"/>
		</g>
	</g>
	<g opacity="0.65">
		
			<image overflow="visible" opacity="0.4" width="38" height="42" xlink:href="17BE13BE22C54EDB.png"  transform="matrix(1 0 0 1 27.1333 20.1333)">
		</image>
		<g>
			<path fill="#F0D483" d="M53.238,53.86c6.879,4.574,4.896-23.763,1.436-27.034c-3.461-3.271-17.885,0.593-19.835,2.769
				c-2.014,2.246-2.188,2.933-2.188,2.933s-0.314,1.327,0.38,3.263C34.042,38.613,46.36,49.286,53.238,53.86z"/>
		</g>
	</g>
	<g opacity="0.65">
		
			<image overflow="visible" opacity="0.4" width="36" height="45" xlink:href="17BE13BE22C54EDC.png"  transform="matrix(1 0 0 1 24.1333 27.1333)">
		</image>
		<g>
			<path fill="#E7C82E" d="M31.847,62.26c1.63,8.098,20.267-13.342,20.132-18.101c-0.133-4.76-13.065-12.227-15.983-12.067
				c-3.013,0.165-3.622,0.526-3.622,0.526s-1.16,0.716-2.039,2.576C29.054,37.906,30.217,54.163,31.847,62.26z"/>
		</g>
	</g>
	<g opacity="0.65">
		
			<image overflow="visible" opacity="0.4" width="42" height="38" xlink:href="17BE13BE22C54ED9.png"  transform="matrix(1 0 0 1 5.1333 27.1333)">
		</image>
		<g>
			<path fill="#F2AC37" d="M11.053,53.172c-4.574,6.878,23.764,4.896,27.035,1.437c3.271-3.462-0.594-17.887-2.77-19.836
				c-2.246-2.013-2.934-2.188-2.934-2.188s-1.327-0.314-3.264,0.379C26.299,33.975,15.626,46.294,11.053,53.172z"/>
		</g>
	</g>
	<g opacity="0.65">
		
			<image overflow="visible" opacity="0.4" width="45" height="35" xlink:href="17BE13BE22C54ED8.png"  transform="matrix(1 0 0 1 -3.8667 25.1333)">
		</image>
		<g>
			<path fill="#EC7D2E" d="M3.059,32.355c-8.098,1.629,13.342,20.265,18.102,20.131s12.228-13.066,12.066-15.984
				c-0.164-3.011-0.526-3.621-0.526-3.621s-0.716-1.161-2.576-2.039C27.415,29.561,11.157,30.726,3.059,32.355z"/>
		</g>
	</g>
	<g opacity="0.65">
		
			<image overflow="visible" opacity="0.4" width="38" height="42" xlink:href="17BE13BE22C54EC7.png"  transform="matrix(1 0 0 1 2.1333 5.1333)">
		</image>
		<g>
			<path fill="#E75731" d="M11.878,11.256C5,6.683,6.983,35.02,10.444,38.29c3.46,3.271,17.885-0.594,19.834-2.769
				c2.015-2.245,2.188-2.932,2.188-2.932s0.313-1.328-0.379-3.264C31.077,26.502,18.756,15.83,11.878,11.256z"/>
		</g>
	</g>
</g>
</svg>
